<svg width="40" height="44" viewBox="0 0 40 44" fill="none" xmlns="http://www.w3.org/2000/svg">
<path d="M21.598 5.80768C23.2714 2.82971 26.6983 0.928977 30.1101 1.08696C33.5219 1.24493 36.7604 3.4524 38.1533 6.57173C40.0774 10.8806 38.4305 16.0457 35.5924 19.8168C32.7544 23.588 28.861 26.4023 25.5133 29.7301C22.1659 33.0563 19.2295 37.2672 20.0698 41.3888C16.9724 39.7528 16.0227 35.5038 17.1576 32.1894C18.2925 28.875 20.9971 26.358 23.7949 24.2497C26.591 22.1411 29.6214 20.2554 31.8766 17.5746C34.1318 14.8938 35.509 11.1406 34.3187 7.84567C33.4207 5.36119 31.0584 3.47032 28.4387 3.13831C25.8174 2.80611 23.0589 4.04794 21.5993 5.81122L21.598 5.80768Z" fill="#934E00"/>
<path d="M27.1199 4.97696C24.1271 4.97696 20.0762 8.06188 19.1803 10.8925C15.4016 -11.0909 -17.5979 12.7583 12.6535 33.6387C7.13029 29.2218 -2.74414 10.5237 10.392 5.69935C16.9458 3.29305 18.3822 12.6522 19.3083 19.6168C21.5395 11.3775 23.2638 9.84008 27.1199 4.97696Z" fill="#400179"/>
</svg>
